<svg version="1.1" id="Layer_1" xmlns="http://www.w3.org/2000/svg" xmlns:xlink="http://www.w3.org/1999/xlink" x="0px" y="0px"
	 width="100%" viewBox="0 0 464 1024" enable-background="new 0 0 464 1024" xml:space="preserve">
<path fill="#000000" opacity="1.000000" stroke="none" 
	d="
M230.375000,1025.000000 
	C230.329651,1014.395813 229.147079,1003.728943 231.394043,993.185120 
	C233.412659,1003.405212 232.809860,1013.755127 232.995209,1024.531250 
	C232.250000,1025.000000 231.500000,1025.000000 230.375000,1025.000000 
z"/>
<path fill="#000000" opacity="1.000000" stroke="none" 
	d="
M142.253891,916.075989 
	C142.560730,905.631531 139.903275,895.921326 138.419083,886.080933 
	C133.182816,851.364014 128.113449,816.645569 125.637077,781.585205 
	C124.477760,765.171692 120.408409,749.078979 119.624268,732.595215 
	C119.568329,731.419189 119.064308,729.608582 117.959579,729.927307 
	C114.262917,730.994141 111.237015,728.589905 107.833900,728.482727 
	C97.570808,728.159363 90.919495,722.566284 84.950645,714.602112 
	C80.195007,708.256653 81.839294,701.158264 80.194000,694.513550 
	C74.127434,670.013000 73.669937,645.106079 75.488678,620.059631 
	C77.681908,589.855896 84.595161,560.675842 93.094093,531.684265 
	C98.778244,512.294495 106.236610,493.724792 113.630661,474.990021 
	C120.162994,458.438690 130.580490,445.333221 142.859970,433.409149 
	C156.115387,420.537384 170.775681,409.332977 187.989716,402.020844 
	C190.480515,400.962830 192.039383,399.651672 191.572357,396.877563 
	C191.076508,393.932159 191.702301,390.621124 187.451874,389.282990 
	C181.807144,387.505890 175.927567,387.801422 170.248840,386.488129 
	C155.906662,383.171295 142.283508,377.715851 128.738388,372.210175 
	C103.496696,361.950104 81.809532,345.897491 60.771004,328.928192 
	C56.825268,325.745605 57.306179,320.988434 56.164703,317.071869 
	C58.586517,314.433167 62.870514,317.272247 64.268394,312.991241 
	C57.552578,308.276031 49.875774,304.750305 44.396721,298.304779 
	C41.917179,295.387909 39.230759,292.647522 36.728619,289.748993 
	C34.547073,287.221893 34.138729,285.024994 37.502300,282.794586 
	C41.507504,280.138733 44.124870,275.849823 48.267845,273.206085 
	C51.841564,270.925598 50.446156,268.010712 48.305466,265.596558 
	C45.185501,262.078033 45.544434,259.856476 49.909428,257.621063 
	C54.867176,255.082062 58.169228,250.522675 61.768917,246.348480 
	C67.493530,239.710220 71.908791,232.115463 77.635040,225.431839 
	C80.555984,222.022507 81.080612,216.555756 82.673485,212.013733 
	C91.040176,188.156342 98.256233,163.874405 108.931137,140.868912 
	C109.416100,127.875648 115.600471,117.085579 122.316048,106.535591 
	C125.532570,101.482498 129.478699,96.818253 131.773315,91.274048 
	C136.489655,79.878517 146.354782,72.590317 153.548477,63.185589 
	C155.768509,60.283195 158.307999,57.623268 160.730072,54.877781 
	C163.322739,51.938938 166.252014,49.727238 171.975540,50.420837 
	C167.410080,54.167721 166.233612,58.889198 162.847824,62.380470 
	C156.201706,69.233597 151.504532,77.546547 146.631531,85.695869 
	C144.666550,88.981979 143.248367,93.164810 140.359161,95.228165 
	C128.920609,103.397072 125.602066,116.314575 120.262558,127.984436 
	C114.786865,139.951935 110.855789,152.526123 107.085617,165.150818 
	C100.516830,187.146881 93.259361,208.931870 83.702682,229.838730 
	C78.263786,241.737244 67.996262,249.482834 58.088757,257.348663 
	C55.032036,259.775452 53.364521,261.673798 57.201969,264.627594 
	C59.135777,266.116119 58.628963,267.842072 57.483032,269.462738 
	C53.942028,274.470764 51.319527,280.107269 46.529266,284.262207 
	C42.435123,287.813385 42.542229,290.063599 46.728134,294.182678 
	C52.452480,299.815674 58.860073,304.601105 65.941910,308.416168 
	C68.297783,309.685303 71.345360,310.551300 71.456573,313.597382 
	C71.562820,316.507874 68.325760,317.134979 66.382339,318.521881 
	C64.933746,319.555634 63.216595,320.213043 61.344631,321.179749 
	C62.275753,324.343201 64.605156,326.273193 66.834358,328.143280 
	C82.714790,341.465240 99.353340,354.076935 118.295921,362.324829 
	C130.783310,367.762054 144.387589,371.236237 157.872803,374.312073 
	C182.664139,379.966705 207.545868,385.247894 233.084335,385.516937 
	C244.673019,385.639038 256.164520,383.756348 267.629700,381.549835 
	C277.721802,379.607574 287.946777,378.262482 298.029907,376.126312 
	C313.036102,372.947174 327.501556,367.844025 342.218414,363.661682 
	C351.690247,360.969879 359.570770,354.562897 367.854126,349.319611 
	C377.709595,343.081146 387.019806,336.040802 396.028687,328.622375 
	C398.467072,326.614441 400.847443,324.520050 402.146484,320.999359 
	C399.313538,320.046967 396.832001,318.532654 394.421234,316.877106 
	C390.565216,314.229065 390.495605,311.818390 394.750732,309.743744 
	C402.169464,306.126556 408.661041,301.255219 414.855255,295.907532 
	C420.908722,290.681366 421.008453,288.235382 415.343262,282.837646 
	C411.174896,278.866058 408.947998,273.534607 405.610474,268.979431 
	C404.486603,267.445526 404.722412,265.843018 406.315460,264.576996 
	C409.768433,261.832825 408.508972,259.867096 405.551605,257.551056 
	C395.042938,249.321289 384.952942,240.701294 378.714294,228.446396 
	C376.121582,223.353363 374.524536,217.945831 372.548553,212.650803 
	C364.464355,190.987564 357.421478,168.984024 350.507446,146.922607 
	C345.670288,131.488113 338.880676,116.790955 330.998138,102.637215 
	C329.954193,100.762756 328.946228,99.036148 326.458374,98.401802 
	C323.503143,97.648270 322.264374,94.763329 320.819214,92.357391 
	C315.330200,83.219215 310.248627,73.755905 303.350922,65.618614 
	C299.398529,60.955910 296.608734,55.542503 291.798676,50.899456 
	C296.421722,49.098202 299.155365,51.292728 301.445282,53.783466 
	C306.289490,59.052517 310.871307,64.562538 315.571014,69.964775 
	C323.724518,79.337059 330.577118,89.567047 336.898865,100.278107 
	C341.716431,108.440590 346.959656,116.294899 350.979950,124.953804 
	C352.939270,129.173737 350.659912,133.318970 352.670105,137.536880 
	C359.041412,150.905441 364.603271,164.639862 369.304596,178.711624 
	C373.788055,192.131073 378.914825,205.356033 382.829224,218.934464 
	C384.258148,223.891022 387.550690,227.020584 390.158051,230.800705 
	C396.013123,239.289307 401.847290,247.856567 409.541992,254.890350 
	C409.787964,255.115143 410.069824,255.318237 410.258453,255.585480 
	C412.006439,258.062347 416.430695,257.686340 416.930267,261.093567 
	C417.361877,264.037292 414.364075,265.926208 413.130096,268.422577 
	C412.009216,270.690094 413.126648,272.170807 414.656494,273.073151 
	C418.752228,275.488861 421.304260,279.649292 425.141968,282.190369 
	C429.448639,285.041931 428.371735,287.573090 425.815338,290.749359 
	C419.157715,299.021240 411.317505,305.869629 402.049347,311.071808 
	C401.053680,311.630707 400.105103,312.273499 398.948792,312.993042 
	C399.871887,315.538940 401.877319,315.622131 403.836029,315.627899 
	C406.607788,315.636017 407.227142,317.006927 406.705414,319.506439 
	C405.810699,323.793335 404.517487,327.473328 400.768768,330.560425 
	C383.858795,344.485870 365.727020,356.652832 346.594727,367.128265 
	C334.355652,373.829437 320.601715,377.387054 307.522827,382.344818 
	C299.355927,385.440643 290.968719,387.350616 282.277313,387.992706 
	C280.441895,388.128265 278.711121,388.610901 276.935516,389.090698 
	C273.882385,389.915649 271.947052,391.026672 272.034363,394.746338 
	C272.118530,398.331696 272.562958,400.741089 276.427612,402.559937 
	C289.694916,408.803955 301.580383,417.053497 312.810730,426.672180 
	C324.200928,436.427765 334.452637,446.907806 342.180664,459.656342 
	C349.596863,471.890472 354.657166,485.354950 359.601776,498.672546 
	C369.393463,525.045105 376.919189,552.160767 382.539703,579.751282 
	C387.002289,601.657532 389.327484,623.861389 388.974762,646.188782 
	C388.693756,663.975586 386.627167,681.624634 382.239105,699.034912 
	C381.124847,703.455933 381.926605,708.325562 379.311615,712.787292 
	C373.793152,722.202820 366.479462,728.256409 355.061157,728.574585 
	C351.720978,728.667786 348.649292,731.519592 345.008636,729.248901 
	C342.366821,735.515930 343.313324,741.653259 342.312988,747.497498 
	C337.059967,778.187439 335.886658,809.352722 331.593872,840.174683 
	C328.428619,862.900696 324.550995,885.509705 321.381348,908.228760 
	C320.218353,916.565063 321.291565,917.021912 327.687958,921.677185 
	C338.144531,929.287292 348.951782,937.221741 350.413666,951.705261 
	C350.979126,957.307495 350.842010,963.083740 348.769012,968.453674 
	C347.841888,970.855347 346.748199,974.449768 342.806030,971.248230 
	C341.357361,970.071594 340.417084,971.554260 339.305634,972.129761 
	C330.213776,976.837341 321.065521,980.310913 310.324554,977.979187 
	C305.436127,976.917908 300.065277,978.150391 294.911560,978.224976 
	C282.773193,978.400513 271.013214,976.425293 259.877045,971.478577 
	C247.557816,966.006165 240.840912,957.517456 239.393097,943.035400 
	C236.347519,912.571106 239.445694,882.117493 237.604950,851.747620 
	C236.831558,838.987793 235.662140,826.275513 235.573944,813.461853 
	C235.403091,788.638306 236.395721,763.843811 236.868301,739.036499 
	C236.976151,733.374634 236.849289,727.706909 236.750031,722.043274 
	C236.718246,720.229675 236.723724,717.820374 234.431168,717.674988 
	C231.812576,717.508789 232.124756,720.075073 232.056137,721.794312 
	C231.924393,725.094543 232.017807,728.403748 231.692230,731.727539 
	C230.307663,727.038513 232.291626,721.811646 229.564682,716.911316 
	C227.137939,718.449524 226.639725,720.355164 226.594482,722.316895 
	C226.068558,745.117737 227.196411,767.886780 227.866547,790.667419 
	C228.169098,800.951599 228.033203,811.263184 227.656921,821.546265 
	C227.480682,826.362793 228.303589,831.155640 227.439041,835.990234 
	C223.424072,858.441406 224.985352,881.134216 225.683960,903.666382 
	C226.177841,919.595459 224.301666,935.205566 222.875153,950.884949 
	C222.062759,959.814331 215.089401,965.311584 207.733902,969.589111 
	C200.001236,974.085938 191.356323,976.363525 182.611893,977.485046 
	C169.125900,979.214722 155.488678,978.305115 141.944489,978.067505 
	C135.806870,977.959778 129.454956,976.097900 124.142555,972.227661 
	C123.233604,971.565491 122.042908,970.375610 121.024399,971.130737 
	C115.595901,975.155762 114.847008,969.881226 114.173073,967.172852 
	C111.521866,956.518494 111.187622,945.963806 119.102013,936.989380 
	C122.842896,932.747437 126.860802,928.747131 130.813034,924.695740 
	C132.086166,923.390747 133.576355,922.325562 135.497375,922.301758 
	C136.686523,923.374146 134.977585,924.085449 135.411667,925.443542 
	C138.287689,922.736938 140.661438,919.951843 142.253891,916.075989 
M219.707443,846.423584 
	C219.936996,825.269775 219.523773,804.143799 217.895294,783.032959 
	C217.295471,775.257263 215.219559,767.149475 217.230698,759.668335 
	C221.096680,745.287659 218.264984,730.851440 218.783768,716.494629 
	C218.970901,711.315552 220.526093,710.992126 223.971451,710.684875 
	C226.721558,710.439697 229.706223,711.182312 231.563812,707.499817 
	C233.277420,711.866821 236.528809,710.368225 239.199768,710.610107 
	C241.382721,710.807739 244.851135,710.960876 244.526764,713.051880 
	C243.829422,717.546814 246.756165,721.915283 244.602798,726.218384 
	C243.489319,728.443359 243.747360,730.639832 243.781815,732.995483 
	C243.939606,743.781860 246.024628,754.504272 246.002945,765.175781 
	C245.960678,785.960266 243.588821,806.740784 243.568436,827.524292 
	C243.533844,862.826111 245.001724,898.129700 244.941788,933.431030 
	C244.919022,946.844238 255.956406,960.896790 268.208466,964.668091 
	C281.328003,968.706360 294.813843,971.886108 308.952606,969.346985 
	C313.000214,968.620117 317.849731,969.021362 321.589142,970.630554 
	C328.735840,973.706055 340.592682,969.409668 343.282776,961.815979 
	C346.387573,953.051758 343.176178,941.450378 335.996460,935.416626 
	C331.205902,931.390747 325.570465,928.894104 319.878845,926.514099 
	C318.352081,925.875671 316.823029,925.703064 316.717194,923.366760 
	C316.190582,911.742371 315.583527,900.323975 319.907074,888.940308 
	C322.846008,881.202209 325.211914,872.660278 320.391510,864.372681 
	C320.018768,863.731812 320.010132,862.756958 320.118317,861.976990 
	C321.508759,851.952637 322.804382,841.880432 324.419189,831.928345 
	C328.963379,803.922485 330.101379,775.642395 332.771973,747.488892 
	C334.580414,728.424133 335.612061,709.314514 336.498444,690.193115 
	C336.937653,680.718567 337.329437,671.241760 337.752350,661.766418 
	C337.878143,658.948730 337.162750,657.525757 333.747101,657.884521 
	C307.378601,660.653625 280.867249,660.231323 254.420364,661.295105 
	C246.861725,661.599121 239.335892,661.016541 231.663239,662.256226 
	C227.537689,662.922668 222.287537,661.373047 217.553650,661.609253 
	C192.208572,662.874146 166.969818,661.882385 141.809616,658.601746 
	C136.592804,657.921570 131.345032,657.478699 126.266426,656.942810 
	C124.817230,659.669434 125.254059,662.060059 125.479866,664.308228 
	C127.211678,681.549866 126.873306,698.895569 128.143524,716.152527 
	C129.633743,736.398010 131.848862,756.597534 132.984695,776.859802 
	C134.308838,800.481140 137.904236,823.803589 140.921570,847.210815 
	C141.641251,852.793823 144.216537,859.109680 142.478836,863.809265 
	C139.884827,870.824829 140.143860,877.328369 141.982971,883.701721 
	C145.182144,894.788391 147.959641,905.770935 147.208832,917.438538 
	C146.889603,922.399353 146.661179,926.860229 140.339890,928.026123 
	C137.818848,928.491089 135.504440,930.204224 133.157684,931.463989 
	C123.007355,936.912964 118.263283,945.300720 119.224625,956.900146 
	C119.924515,965.344910 129.628433,973.578186 138.028198,972.628601 
	C138.668518,972.556213 139.472870,972.455322 139.882080,972.047607 
	C143.970474,967.974976 149.497757,969.179565 153.990723,969.428711 
	C162.020767,969.874084 169.933914,970.369568 177.817459,968.672791 
	C186.054764,966.899780 194.584106,966.259705 201.889557,961.143555 
	C212.340729,953.824402 218.795639,944.692261 218.696045,931.320923 
	C218.487656,903.343994 218.565414,875.362427 219.707443,846.423584 
M171.774155,654.812805 
	C179.314041,654.480103 186.691818,655.918823 194.124451,656.809509 
	C209.329681,658.631653 224.621002,657.760132 239.861969,657.823730 
	C259.013519,657.903625 278.195404,657.505676 297.313202,656.417664 
	C309.226013,655.739685 321.243408,655.497498 333.038879,653.045837 
	C336.402588,652.346741 337.911346,650.981567 337.991455,647.493591 
	C338.454407,627.339783 337.954315,607.218994 336.271057,587.129517 
	C334.855042,570.229614 333.732697,553.296509 331.849548,536.448608 
	C331.108215,529.816101 332.464966,522.481567 327.901489,516.708801 
	C325.510010,513.683655 323.392822,510.531189 321.665527,507.165161 
	C314.486206,493.175018 306.427124,479.459991 306.579620,462.943237 
	C306.593201,461.475739 306.271942,459.922089 305.746277,458.545959 
	C302.068787,448.919373 302.680115,438.950012 303.272858,428.983612 
	C303.366241,427.413208 303.423157,425.909698 302.018860,424.922028 
	C299.101959,422.870544 296.122375,420.908203 292.902527,418.729218 
	C290.220367,426.216187 288.354034,433.930511 283.795135,439.616180 
	C273.495453,452.461456 260.487549,461.282043 242.984009,461.332520 
	C239.373138,461.342926 235.251373,459.800262 232.111389,463.191864 
	C231.477966,463.876007 230.969315,463.435120 230.561127,462.847534 
	C229.158279,460.828156 227.006531,461.437225 225.071808,461.272064 
	C220.427902,460.875641 215.587479,460.919769 211.367828,458.867798 
	C198.214935,452.471710 187.064056,443.896973 180.955780,429.941803 
	C178.921997,425.295288 176.926682,420.478302 172.577118,416.725769 
	C169.437332,419.108185 166.532837,421.979858 163.072235,423.786041 
	C157.464722,426.712769 155.631409,431.012146 155.451736,437.118011 
	C154.952118,454.098480 153.901123,471.106171 149.430908,487.576721 
	C145.713379,501.273987 143.601715,515.780884 132.989380,526.642151 
	C132.578552,527.062622 132.431274,527.846619 132.365280,528.482361 
	C131.063171,541.027283 129.656158,553.563538 128.559479,566.126709 
	C127.793091,574.906189 127.784180,583.757568 126.865211,592.516846 
	C124.965279,610.626038 125.186836,628.773560 125.186180,646.928040 
	C125.186066,650.003906 126.427734,651.349243 129.557892,651.694946 
	C143.292892,653.211853 157.048080,654.380371 171.774155,654.812805 
M382.766693,662.222656 
	C383.500519,646.632751 383.352905,631.093140 382.041901,615.498047 
	C380.126770,592.715881 375.555878,570.480896 369.650269,548.495789 
	C365.033417,531.308289 358.458099,514.723511 353.114899,497.763397 
	C346.037140,475.297455 333.537964,456.387848 317.305725,439.687256 
	C315.325623,437.649994 314.116699,434.654480 309.740356,433.448425 
	C309.323364,459.129822 310.294128,483.592255 326.552124,505.815460 
	C327.798492,502.052704 328.591888,499.215637 329.680267,496.496643 
	C330.759033,493.801727 330.697021,490.100464 335.281158,489.475006 
	C335.904938,492.902618 333.701874,495.714020 334.133728,498.874603 
	C335.146545,506.286865 335.788940,513.748962 336.647858,521.183228 
	C338.174744,534.398682 339.792023,547.603821 341.296661,560.821777 
	C343.461792,579.841614 345.061584,598.922729 345.820251,618.039551 
	C346.473297,634.495361 347.703461,651.071716 345.153046,667.423584 
	C343.097717,680.601257 342.148499,693.868469 340.508423,707.072021 
	C339.232910,717.340820 341.976746,720.646851 351.638245,721.175293 
	C351.499115,719.138428 348.146362,718.123047 349.766357,715.562195 
	C351.282867,714.472107 352.322571,715.590149 353.393280,716.271057 
	C359.048126,719.866943 361.773590,719.652527 366.503784,715.072327 
	C371.811462,709.932983 374.661560,703.462219 376.776031,696.505798 
	C380.088593,685.607727 381.545654,674.408142 382.766693,662.222656 
M150.653503,437.958405 
	C150.545380,435.238373 149.356430,436.276672 148.320053,437.339539 
	C134.760101,451.246704 122.656342,466.184998 115.361420,484.466156 
	C110.927017,495.578735 107.296188,506.976135 103.372017,518.272400 
	C95.446037,541.088196 88.974869,564.218323 84.953773,588.066101 
	C81.402039,609.130310 79.523827,630.276733 80.160980,651.624634 
	C80.618568,666.956360 82.290382,682.130676 86.647079,696.918823 
	C88.755165,704.074341 91.923744,710.628052 97.547897,715.670837 
	C102.188881,719.831909 104.693695,719.834717 109.960770,716.393311 
	C111.011589,715.706665 111.989655,714.515503 113.455681,715.423645 
	C115.247131,717.723083 111.662354,719.154968 112.495972,721.298889 
	C122.405869,719.409973 123.244255,718.437866 122.838356,709.088623 
	C122.730110,706.595154 122.447510,704.108948 122.233551,701.620422 
	C121.164948,689.191589 119.491951,676.843628 117.810379,664.481201 
	C115.487984,647.407776 116.946793,630.210876 117.803558,613.084778 
	C118.735062,594.464600 120.298882,575.882690 122.391129,557.353394 
	C124.480446,538.850037 126.483543,520.332764 128.968262,501.881317 
	C129.535400,497.669800 128.223053,493.700043 128.894501,489.433228 
	C134.825653,495.134613 135.620926,502.705170 136.609283,511.140594 
	C147.294250,487.355316 149.558304,463.084656 150.653503,437.958405 
M265.761810,400.427155 
	C265.785980,399.595398 265.837250,398.763428 265.830048,397.931946 
	C265.773132,391.356720 265.758698,391.208374 259.427643,391.677277 
	C239.918335,393.122009 220.422195,393.369415 200.941620,391.330841 
	C198.233841,391.047485 197.323013,392.095581 197.437653,394.674316 
	C197.703217,400.647919 197.941147,406.625458 198.012589,412.603485 
	C198.035797,414.544830 198.010544,416.975494 195.704498,417.670746 
	C193.733078,418.265106 193.024796,416.124054 192.026993,414.878204 
	C189.604309,411.853302 186.985916,410.291718 183.006897,412.458282 
	C178.873749,414.708771 180.319809,418.105133 181.520874,420.692230 
	C184.862137,427.889252 187.513916,435.607422 193.466995,441.259735 
	C202.857193,450.175476 212.457352,458.725769 226.952621,456.868652 
	C229.148483,456.587341 231.371521,456.426666 233.708420,456.552185 
	C243.311066,457.067719 252.999130,457.319031 262.044220,452.850220 
	C276.197083,445.857849 283.235870,433.221710 288.897400,419.441437 
	C289.578094,417.784546 289.691864,416.342438 288.224945,414.906067 
	C284.203369,410.968262 274.401886,411.373688 270.738312,415.753326 
	C269.881683,416.777374 269.148010,418.118530 267.559601,417.586823 
	C266.112915,417.102600 265.729675,415.707214 265.717255,414.331360 
	C265.678284,410.006042 265.714905,405.679993 265.761810,400.427155 
z"/>
<path fill="#000000" opacity="1.000000" stroke="none" 
	d="
M282.079651,85.014618 
	C278.968109,96.663506 275.560516,107.831673 274.789124,119.555740 
	C274.604523,122.361771 273.377167,124.201317 270.406647,124.710426 
	C263.516510,125.891281 256.264343,126.905693 249.862381,124.492950 
	C245.303268,122.774742 240.945663,122.181801 236.475891,122.304100 
	C226.827621,122.568108 217.117203,122.614891 207.705154,125.441093 
	C203.477478,126.710556 199.056473,125.718849 194.848648,125.231987 
	C191.407578,124.833847 188.705200,123.136490 188.408051,118.220528 
	C187.652420,105.719727 183.589417,93.806580 180.381989,81.755493 
	C178.138214,73.325073 177.141617,64.699936 176.971359,55.179317 
	C181.280151,57.253605 182.163345,60.862766 181.670059,63.682610 
	C180.866852,68.273964 182.573135,72.030357 184.378143,75.581528 
	C189.191956,85.052200 192.052658,95.140213 194.082016,105.405281 
	C195.420502,112.175781 199.876251,115.917297 204.664581,119.755684 
	C205.521561,120.442650 206.513931,120.380013 207.516663,120.080688 
	C215.155319,117.800522 223.328979,119.683258 231.059158,116.745056 
	C233.247330,115.913353 237.214432,117.847275 240.455444,118.106606 
	C245.591904,118.517601 250.710953,119.143158 255.845901,119.576843 
	C259.937988,119.922455 266.384155,114.546593 267.985687,109.281700 
	C269.437622,104.508774 270.639465,99.656944 271.855042,94.815651 
	C273.360748,88.818871 275.425812,83.071159 278.174072,77.499718 
	C280.353149,73.082130 282.573700,68.571930 281.862030,63.244793 
	C281.478455,60.373585 283.091003,58.006115 285.330505,56.014885 
	C286.533508,65.868828 284.398224,75.246941 282.079651,85.014618 
z"/>
<path fill="#000000" opacity="1.000000" stroke="none" 
	d="
M170.034500,122.183311 
	C169.033569,130.172348 168.384369,137.832932 165.493240,145.014023 
	C163.697769,149.473724 161.678177,153.823486 155.399460,152.125244 
	C154.749817,151.949554 153.612274,152.298416 153.177536,152.809296 
	C149.596405,157.017685 144.988281,153.552139 140.969604,154.484344 
	C139.674026,154.784866 139.354950,153.258392 139.093735,152.030426 
	C138.615387,149.781845 136.877090,149.508560 134.951416,149.515686 
	C133.617844,152.600769 135.796600,154.857346 136.105789,157.403198 
	C136.276871,158.811844 136.235657,160.263916 134.582840,160.618240 
	C133.234024,160.907394 132.511856,159.769836 132.089951,158.632919 
	C131.686264,157.545029 131.249680,156.430923 131.103989,155.292953 
	C130.672607,151.923386 128.962708,148.005112 132.471970,145.585022 
	C135.683716,143.370102 138.319855,146.299011 140.949432,147.916763 
	C141.463837,148.233231 142.104874,148.343872 143.353134,148.784302 
	C141.654144,143.040283 139.378052,138.100250 138.480820,132.753906 
	C138.033661,130.089279 137.850143,127.617035 140.576736,126.257652 
	C143.276550,124.911613 145.057907,126.918625 146.433823,128.758926 
	C148.905731,132.065170 151.098206,135.580338 153.934708,139.790894 
	C167.667694,117.699348 166.331955,92.747894 170.424118,68.534508 
	C172.738220,71.030899 172.578323,73.940254 172.486160,76.485603 
	C172.035294,88.937080 171.327515,101.379433 170.682938,113.823578 
	C170.545349,116.479507 170.292801,119.129471 170.034500,122.183311 
M144.379623,133.535995 
	C144.216797,133.533325 144.029984,133.479874 143.897919,133.542297 
	C143.766037,133.604630 143.580154,133.809174 143.603622,133.906723 
	C144.563629,137.896347 145.489563,141.906158 148.615921,144.944168 
	C150.095642,140.262955 146.757431,137.283066 144.379623,133.535995 
z"/>
<path fill="#000000" opacity="1.000000" stroke="none" 
	d="
M320.789978,154.276917 
	C314.383698,156.230194 309.248993,152.067322 303.466461,151.840576 
	C300.029572,151.705795 298.819458,147.541382 297.717834,144.346558 
	C294.266449,134.337189 292.989563,123.963234 292.733856,113.456909 
	C292.547760,105.809555 292.317230,98.189507 291.254822,90.592644 
	C290.894104,88.013268 290.655853,84.924126 294.691589,83.660408 
	C296.528290,103.446053 299.341980,122.544762 309.383514,140.208008 
	C311.962006,136.173019 314.111450,132.504135 316.579773,129.064056 
	C318.006622,127.075493 319.846405,124.808464 322.769806,126.284744 
	C325.468781,127.647652 325.454987,130.294403 324.775299,132.841614 
	C323.877777,136.205215 322.811890,139.523804 321.825928,142.863953 
	C321.331024,144.540497 320.260345,146.105911 320.525360,148.097885 
	C323.208771,148.255402 324.399384,145.999054 326.421112,145.346039 
	C330.210052,144.122223 332.220367,145.454880 332.910217,149.131195 
	C333.348633,151.467529 333.102875,153.830551 331.998352,155.945663 
	C331.103302,157.659683 331.530029,161.255829 328.514648,160.372009 
	C325.569580,159.508774 327.446808,156.772598 327.949280,154.807877 
	C328.383545,153.109863 329.555023,151.426590 328.007660,149.757614 
	C323.940826,148.678299 324.883850,154.891861 320.789978,154.276917 
M314.992554,139.411545 
	C314.375519,141.236481 312.258698,143.002289 315.160065,145.525513 
	C317.901947,141.647797 318.851807,137.505173 319.045410,132.995560 
	C317.805664,134.928452 316.565918,136.861359 314.992554,139.411545 
z"/>
<path fill="#000000" opacity="1.000000" stroke="none" 
	d="
M231.813797,326.879028 
	C229.481720,326.480316 229.200089,328.297882 228.400009,329.465088 
	C225.948318,333.041748 222.506729,335.305237 218.481079,336.666809 
	C216.515427,337.331665 214.534012,337.325012 213.340393,335.081970 
	C213.736374,332.898987 215.625931,332.837250 217.117722,332.346619 
	C223.785400,330.153748 227.261658,324.912598 229.425034,318.811157 
	C231.211075,313.773956 229.127686,309.493469 223.920319,306.143372 
	C221.088364,304.321442 217.954636,302.900452 218.560394,298.636261 
	C218.636871,298.097839 218.163986,297.371307 217.755997,296.894043 
	C216.349060,295.248322 213.186691,293.859680 215.729279,291.321106 
	C218.087296,288.966827 220.194489,286.117249 225.048477,288.263336 
	C229.076996,290.044464 234.212845,289.339935 238.861420,289.693390 
	C242.120621,289.941223 245.510803,289.629272 248.249664,291.930481 
	C245.888367,298.709229 243.729446,305.109985 236.775787,308.911530 
	C232.619537,311.183746 233.026398,316.135406 234.597641,320.150146 
	C237.058075,326.436890 241.058289,331.400330 248.166916,332.910675 
	C248.631042,333.009247 249.069260,333.330017 249.463058,333.623291 
	C249.712662,333.809174 249.857544,334.135712 250.201614,334.608154 
	C249.051788,337.241455 246.926788,337.398987 244.566833,336.567535 
	C240.189819,335.025482 236.787949,332.168610 234.153290,328.385345 
	C233.612457,327.608734 233.488480,326.361877 231.813797,326.879028 
z"/>
<path fill="#000000" opacity="1.000000" stroke="none" 
	d="
M296.820923,278.974335 
	C297.107208,274.500946 298.230225,270.783905 300.578125,267.383820 
	C304.279877,262.023163 309.964233,261.997437 313.351227,267.469635 
	C317.795166,274.649567 315.403992,286.034729 308.527435,290.437317 
	C304.252686,293.174225 302.058411,292.682404 299.645844,288.349518 
	C298.097961,285.569611 297.040985,282.611877 296.820923,278.974335 
z"/>
<path fill="#000000" opacity="1.000000" stroke="none" 
	d="
M162.668121,267.350769 
	C167.644791,274.776978 167.526718,281.924500 163.159058,289.173401 
	C161.352646,292.171448 159.114105,292.663177 156.024109,291.138153 
	C147.706039,287.033051 144.688492,274.668213 150.257996,267.134308 
	C153.911545,262.192139 158.290054,262.156708 162.668121,267.350769 
z"/>
<path fill="#000000" opacity="1.000000" stroke="none" 
	d="
M232.897949,914.934570 
	C231.777542,934.957703 234.430145,954.577087 231.054993,974.075439 
	C229.812897,926.481567 229.814560,878.889404 231.062561,831.283203 
	C233.622162,844.962646 232.165131,858.775635 232.764130,872.513916 
	C233.372467,886.466370 232.898834,900.465881 232.897949,914.934570 
z"/>
</svg>